<svg width="24" height="24" viewBox="0 0 24 24" fill="none" xmlns="http://www.w3.org/2000/svg">
<path d="M3.21995 4.28097C3.15022 4.21124 3.0949 4.12846 3.05716 4.03735C3.01942 3.94624 3 3.84859 3 3.74997C3 3.65135 3.01942 3.5537 3.05716 3.4626C3.0949 3.37149 3.15022 3.2887 3.21995 3.21897C3.28968 3.14924 3.37246 3.09392 3.46357 3.05619C3.55468 3.01845 3.65233 2.99902 3.75095 2.99902C3.84956 2.99902 3.94721 3.01845 4.03832 3.05619C4.12943 3.09392 4.21222 3.14924 4.28195 3.21897L12.0009 10.9395L19.7199 3.21897C19.7897 3.14924 19.8725 3.09392 19.9636 3.05619C20.0547 3.01845 20.1523 2.99902 20.2509 2.99902C20.3496 2.99902 20.4472 3.01845 20.5383 3.05619C20.6294 3.09392 20.7122 3.14924 20.7819 3.21897C20.8517 3.2887 20.907 3.37149 20.9447 3.4626C20.9825 3.5537 21.0019 3.65135 21.0019 3.74997C21.0019 3.84859 20.9825 3.94624 20.9447 4.03735C20.907 4.12846 20.8517 4.21124 20.7819 4.28097L13.0614 12L20.7819 19.719C20.8517 19.7887 20.907 19.8715 20.9447 19.9626C20.9825 20.0537 21.0019 20.1514 21.0019 20.25C21.0019 20.3486 20.9825 20.4462 20.9447 20.5373C20.907 20.6285 20.8517 20.7112 20.7819 20.781C20.7122 20.8507 20.6294 20.906 20.5383 20.9438C20.4472 20.9815 20.3496 21.0009 20.2509 21.0009C20.1523 21.0009 20.0547 20.9815 19.9636 20.9438C19.8725 20.906 19.7897 20.8507 19.7199 20.781L12.0009 13.0605L4.28195 20.781C4.21222 20.8507 4.12943 20.906 4.03832 20.9438C3.94721 20.9815 3.84956 21.0009 3.75095 21.0009C3.65233 21.0009 3.55468 20.9815 3.46357 20.9438C3.37246 20.906 3.28968 20.8507 3.21995 20.781C3.15022 20.7112 3.0949 20.6285 3.05716 20.5373C3.01942 20.4462 3 20.3486 3 20.25C3 20.1514 3.01942 20.0537 3.05716 19.9626C3.0949 19.8715 3.15022 19.7887 3.21995 19.719L10.9404 12L3.21995 4.28097Z" fill="#03034E"/>
</svg>
