<svg width="26" height="26" viewBox="0 0 26 26" fill="none" xmlns="http://www.w3.org/2000/svg">
<path d="M13 14.2C15.4853 14.2 17.5 12.5882 17.5 10.6C17.5 8.61177 15.4853 7 13 7C10.5147 7 8.5 8.61177 8.5 10.6C8.5 12.5882 10.5147 14.2 13 14.2Z" stroke="#FEFEFE" stroke-width="2" stroke-linecap="round" stroke-linejoin="round"/>
<path d="M13 1C9.8174 1 6.76516 2.01143 4.51472 3.81178C2.26428 5.61212 1 8.05392 1 10.6C1 12.8704 1.603 14.356 3.25 16L13 25L22.75 16C24.397 14.356 25 12.8704 25 10.6C25 8.05392 23.7357 5.61212 21.4853 3.81178C19.2348 2.01143 16.1826 1 13 1V1Z" stroke="#FEFEFE" stroke-width="2" stroke-linecap="round" stroke-linejoin="round"/>
</svg>
