<svg width="18" height="18" viewBox="0 0 18 18" fill="none" xmlns="http://www.w3.org/2000/svg">
<path d="M6.90854 3.61954L6.90885 3.61969L13.3288 6.82969C14.6963 7.51344 15.2125 8.3289 15.2125 8.99998C15.2125 9.67105 14.6963 10.4865 13.3288 11.1703L6.90885 14.3803C5.85904 14.9052 5.00084 15.1721 4.34588 15.2345C3.68877 15.2972 3.30518 15.1506 3.09499 14.9401C2.88474 14.7296 2.73864 14.3457 2.8018 13.6888C2.86474 13.0342 3.13208 12.177 3.65685 11.1292C3.6569 11.1291 3.65696 11.129 3.65701 11.1289L4.30915 9.83212L4.30917 9.83213L4.31141 9.82756C4.56697 9.30623 4.56697 8.70123 4.31141 8.1799L4.31143 8.17989L4.30967 8.17637L3.65717 6.87137L3.65701 6.87106C3.13219 5.82325 2.8653 4.96607 2.80289 4.31154C2.74028 3.65493 2.8868 3.27087 3.09757 3.06009C3.30834 2.84932 3.6924 2.70281 4.34902 2.76542C5.00354 2.82783 5.86072 3.09472 6.90854 3.61954ZM7.07995 10.0625H11.13C11.7136 10.0625 12.1925 9.58362 12.1925 8.99998C12.1925 8.41634 11.7136 7.93748 11.13 7.93748H7.07995C6.49631 7.93748 6.01745 8.41634 6.01745 8.99998C6.01745 9.58362 6.49631 10.0625 7.07995 10.0625Z" fill="white" stroke="white"/>
</svg>
